<?xml version="1.0" encoding="utf-8"?>
<!-- Generator: Adobe Illustrator 24.0.0, SVG Export Plug-In . SVG Version: 6.00 Build 0)  -->
<svg version="1.1" id="Capa_1" xmlns="http://www.w3.org/2000/svg" xmlns:xlink="http://www.w3.org/1999/xlink" x="0px" y="0px"
	 viewBox="0 0 300 167" style="enable-background:new 0 0 300 167;" xml:space="preserve">
<style type="text/css">
	.st0{fill-rule:evenodd;clip-rule:evenodd;fill:#282476;}
	.st1{fill-rule:evenodd;clip-rule:evenodd;fill:#EE3325;}
	.st2{fill-rule:evenodd;clip-rule:evenodd;fill:#FFFFFF;}
</style>
<g>
	<g>
		<path class="st0" d="M176.5,84.1c5.1-8,8.1-20.3,8.1-29.8c0-13-8.1-15.9-15.7-8.5l-7.6,36.6C158.5,94.2,170.3,93.7,176.5,84.1
			 M236.3,77.7c2.5-2.7,4.1-6,4.9-9.9l6.2-30.1c0.9-4.2-0.4-7.6-5.3-6.8c-9.4,1.4-15.1,17.5-17.1,25c-1.5,5.5-4.8,21.2,0.1,25.2
			C228.4,83.9,234.1,80.1,236.3,77.7 M160.4,105.7c-7.9,1.2-16.8-0.4-18.8-9.3c-4.6,7.7-12.8,14-21.9,15.4
			c-7.8,1.2-12.8-2.4-13.7-10.3c-4.4,7.7-11.8,14.1-20.8,15.5c-9.8,1.5-14.7-4.3-14.9-13.8c-7.5,11.3-21.5,20.7-35.1,22.7
			c-23.2,3.5-30.6-7.8-30.6-29.8c0-15.6,4-33.4,10.6-47.4c4.1-8.7,9.2-15.9,15.1-21.3c9.2-8.4,27.7-16,39.6-9.3
			c7.4,4.2,8.7,16.2,4.6,22.8c-3.2,5.1-11.2,7-15.5,2.4c4.7-3,9.1-14.9,4.5-19.5c-3.9-3.9-10.6-0.8-14,2.3
			c-8.9,8-14.7,24.3-17.6,35.5c-2.4,9.7-4.1,20.3-4.1,30.2c0,11.4,2.5,21.4,16.8,19.2c9.1-1.4,17-6,23.1-12.8
			c2.3-2.6,3.9-6.2,5.4-13.7L80.8,47l20.1-3l-10,49c-0.3,1.5-0.4,2.8-0.4,4c0,3.8,1.4,5.5,4.2,5.1c9.6-1.4,11.7-16.7,13.3-24.3
			l7.4-36l20.1-3l-10,49c-1.4,4.9-1.4,9.9,5.1,8.9c6.5-1,9.8-8.5,11.3-14l14.9-72.2l20.7-5.9L170.7,37c6.4-4.8,16.8-9.6,23.4-2.1
			c3,3.5,4.6,9.5,4.6,17.9c0,14.2-5.5,30.5-15.2,40.9C177.2,100.3,169.5,104.4,160.4,105.7 M293.2,87.1c-7.5,13-25.3,19.4-38.6,23.1
			c-62.4,17.6-90,26.3-145.2,52.2c-20.7-10.2-51.2-22.1-76-29l215.9-34.5c11.7-1.8,30.4-5.3,37-15.5c4.5-7-4.5-12.8-9.2-6
			c-6.4,9.2-21.1,20.3-31.5,12.3c-2.3-1.8-3.7-4.8-4.3-9c-2.6,4.1-5.4,7.4-8.3,10c-6.5,5.8-18.1,9.2-25.4,2.9
			c-9.2-8.1-5.4-27.9-1.8-38.3c5.1-14.8,15.4-30.1,32-32.5c4.3-0.7,9.3-0.5,11.9,3.6l1-4.8l20.1-3l-10,49c-3,11,4.1,14.3,12.2,4.5
			C282.2,60.9,302,71.8,293.2,87.1"/>
		<path class="st1" d="M172.8,81.5c2.1-3.4,3.9-7.8,5.1-12.4c1.4-5,2.1-10.3,2.1-14.8c0-2.9-0.4-5-1.2-6.4c-0.4-0.7-0.8-1.2-1.3-1.4
			c-0.4-0.2-0.9-0.2-1.6,0c-0.9,0.2-1.9,0.8-2.9,1.6l-7.3,35.1l0,0.1h0c-0.4,1.7-0.4,2.8-0.2,3.3c0.3,0.1,0.6,0,1.1-0.1
			c2-0.5,4.3-2.2,6.1-5C172.7,81.6,172.8,81.6,172.8,81.5 M233.1,74.4c0.9-1,1.6-2.1,2.2-3.3c0.7-1.3,1.1-2.8,1.5-4.3
			c0-0.1,0-0.1,0-0.2l6.2-30c0.1-0.5,0.2-1,0.1-1.4c-0.1,0-0.2,0-0.3,0c-2.3,0.3-4.5,2.5-6.4,5.3c-3.5,5.1-5.9,12.2-7,16.4
			c0,0.1,0,0.1-0.1,0.2c-0.9,3.2-2.3,9.7-2.3,15.1c0,2.6,0.3,4.6,0.9,5.2c0.1,0.1,0.1,0.1,0.2,0.2h0c0,0,0.4-0.2,1-0.5
			c1.4-0.6,2.8-1.7,3.6-2.6l0,0C233,74.5,233.1,74.5,233.1,74.4 M76.4,45.8c-0.1,0.1-0.2,0.2-0.3,0.3c-2.3,2.2-5.3,3.7-8.5,4.2
			c-3.3,0.5-6.7,0-9.6-1.8c-0.9-0.6-1.7-1.2-2.4-2c-1.7-1.8-1.7-4.7,0.2-6.5c0.2-0.2,0.5-0.4,0.7-0.6c0.2-0.1,0.4-0.3,0.5-0.4
			c1.4-1.4,2.6-3.8,3.3-6.4c0.6-2.2,0.7-4.3,0-5.4c-0.1-0.1-0.1-0.1-0.1-0.2l0,0c-0.5-0.5-1.3-0.6-2.2-0.4c-2,0.3-4.1,1.6-5.5,2.9
			l0,0c-3.4,3-6.3,7.6-8.8,12.6c-3.4,6.8-5.9,14.5-7.4,20.7c-1.2,4.9-2.3,10.1-3,15.2c-0.6,4.6-1,9.3-1,13.9c0,5,0.5,9.5,2.3,12.2
			c1.4,2.2,4.2,3.3,9.3,2.5c3.9-0.6,7.6-1.9,10.9-3.7c3.5-2,6.7-4.5,9.5-7.6c0.8-0.9,1.5-2,2.2-3.6c0.8-1.9,1.5-4.5,2.2-7.9
			l7.7-37.6C76.4,46,76.4,45.9,76.4,45.8 M232.2,97l13.1-2.1c-0.6-0.3-1.1-0.7-1.7-1c-0.3-0.2-0.6-0.4-0.8-0.6
			c-1.1-0.9-2.1-1.9-2.9-3.1c-1.3,1.5-2.6,2.8-3.9,3.9c-0.1,0.1-0.2,0.2-0.3,0.2C234.7,95.4,233.5,96.2,232.2,97 M173.8,106.4
			l36.7-5.9c-2.1-0.7-4-1.8-5.8-3.4c-0.1,0-0.1-0.1-0.1-0.1c-4.6-4.1-6.6-10.3-7.1-16.9c-2.7,6.2-6.3,12-10.7,16.7l0,0l0,0
			c-3.5,3.7-7.4,6.7-11.7,8.9C174.7,105.9,174.3,106.2,173.8,106.4 M129.6,113.4l20.9-3.3c-1.7-0.4-3.3-0.9-4.8-1.6
			c-1.8-0.9-3.4-2.1-4.8-3.6c-1.9,2.1-4,3.9-6.3,5.6C133,111.6,131.3,112.6,129.6,113.4 M93.6,119.2l19.1-3.1
			c-1.9-0.5-3.7-1.3-5.2-2.4c-1.1-0.8-2-1.7-2.8-2.8c-1.6,1.7-3.3,3.3-5.2,4.7C97.7,117,95.7,118.2,93.6,119.2 M49.6,126.2l29.4-4.7
			c-3.1-0.5-5.7-1.8-7.9-3.8l0,0l0,0c-1.3-1.2-2.4-2.7-3.2-4.4c-3.2,3.2-6.8,6.2-10.7,8.7C54.8,123.6,52.3,125,49.6,126.2
			 M176.5,84.1c5.1-8,8.1-20.3,8.1-29.8c0-13-8.1-15.9-15.7-8.5l-7.6,36.6C158.5,94.2,170.3,93.7,176.5,84.1 M236.3,77.7
			c2.5-2.7,4.1-6,4.9-9.9l6.2-30.1c0.9-4.2-0.4-7.5-5.3-6.8c-9.4,1.4-15.1,17.5-17.1,25c-1.5,5.5-4.8,21.2,0.1,25.2
			C228.4,83.9,234.1,80.1,236.3,77.7 M105.9,101.5c-4.4,7.7-11.8,14.1-20.8,15.5c-9.8,1.5-14.7-4.3-14.9-13.8
			c-7.5,11.3-21.5,20.7-35.1,22.7c-23.2,3.5-30.6-7.8-30.6-29.8c0-15.6,4-33.4,10.6-47.4c4.1-8.7,9.2-15.9,15.1-21.3
			c9.2-8.4,27.7-16,39.6-9.4c7.4,4.2,8.7,16.2,4.6,22.9c-3.2,5.1-11.2,7-15.5,2.4c4.7-3,9.1-14.9,4.5-19.5c-3.9-3.9-10.6-0.8-14,2.3
			c-8.9,8-14.7,24.3-17.6,35.5c-2.4,9.6-4.1,20.3-4.1,30.2c0,11.4,2.5,21.4,16.8,19.3c9.1-1.4,17-6,23.1-12.8
			c2.3-2.6,3.9-6.2,5.4-13.7L80.8,47l20.1-3l-10,49c-0.3,1.5-0.4,2.8-0.4,4c0,3.8,1.4,5.5,4.2,5.1c9.6-1.4,11.7-16.7,13.3-24.3
			l7.4-35.9l20.1-3l-10,49c-1.4,4.9-1.4,9.9,5.1,8.9c6.5-1,9.8-8.4,11.3-14l14.9-72.2l20.7-5.9L170.8,37c6.3-4.8,16.8-9.6,23.4-2.1
			c3,3.5,4.6,9.5,4.6,17.9c0,14.2-5.5,30.5-15.2,40.9c-6.3,6.7-14,10.7-23.1,12.1c-7.9,1.2-16.8-0.4-18.8-9.3
			c-4.6,7.7-12.8,14-21.9,15.4C111.9,113,106.9,109.4,105.9,101.5 M293.2,87.1c-7.5,13-25.3,19.4-38.6,23.1
			c-62.4,17.6-90,26.3-145.1,52.2c-20.7-10.2-51.2-22.2-76-29l215.9-34.5c11.7-1.8,30.4-5.3,37-15.5c4.5-7-4.5-12.8-9.2-6
			c-6.4,9.2-21.1,20.3-31.5,12.3c-2.3-1.8-3.7-4.8-4.3-9c-2.6,4.1-5.4,7.4-8.3,10c-6.5,5.8-18.1,9.2-25.4,2.9
			c-9.2-8.1-5.4-27.9-1.8-38.3c5.1-14.8,15.4-30.1,32-32.6c4.3-0.6,9.3-0.5,11.9,3.6l1-4.8l20.1-3l-10,49c-3,11,4.1,14.3,12.2,4.5
			C282.2,60.9,302,71.8,293.2,87.1 M297.1,89.4c-4.3,7.4-11.2,12.8-19,16.8c-7.4,3.9-15.5,6.5-22.3,8.4
			c-31.1,8.8-53.6,15.3-75.1,22.9c-21.5,7.6-42.1,16.2-69.4,29c-1.3,0.6-2.7,0.5-3.9,0h0c-10.4-5.2-23.5-10.8-37.1-16
			c-12.9-4.9-26.2-9.4-38.1-12.7C11.4,132,0,124.5,0,96.1c0-8.1,1-16.7,2.9-25.2s4.7-16.8,8.1-24.2v0v0c2.2-4.6,4.6-8.8,7.3-12.6
			c2.7-3.8,5.6-7.2,8.8-10.1c5.5-5.1,14.2-9.9,23-12c7.6-1.8,15.5-1.6,22,2c0.2,0.1,0.4,0.2,0.6,0.4c4.6,2.9,7.4,7.9,8.3,13.3
			c0.9,5.1,0.1,10.7-2.3,14.9c-0.1,0.1-0.1,0.2-0.2,0.4c0.5-0.3,1-0.5,1.6-0.6v0l20.1-3c2.5-0.4,4.8,1.4,5.2,3.9
			c0.1,0.7,0.1,1.3-0.1,1.9l-10,48.6h0c-0.1,0.6-0.2,1.2-0.3,1.7c0,0.4-0.1,0.9-0.1,1.5c0,0.1,0,0.2,0,0.3c4.8-2,6.8-12.1,8-18.4
			c0-0.1,0-0.2,0.4-2l7.4-35.9c0.4-1.9,2-3.3,3.8-3.6v0l20.1-3c2.5-0.4,4.8,1.4,5.2,3.9c0.1,0.7,0,1.3-0.1,1.9l-10,48.7
			c0,0.1,0,0.2-0.1,0.3c-0.5,1.7-0.7,3.2-0.5,3.9c0.1,0.4,0-0.6,0.6-0.7c1.5-0.2,2.7-1.2,3.8-2.5c1.8-2.3,3-5.5,3.8-8.2l0-0.1
			l14.9-71.8c0.4-1.7,1.6-3,3.2-3.5v0l20.7-5.9c2.4-0.7,5,0.7,5.7,3.1c0.2,0.8,0.2,1.7,0,2.5l-4.6,22.3c2.1-0.8,4.3-1.4,6.5-1.6
			c5-0.4,9.8,0.9,13.8,5.3l0,0l0,0c2,2.3,3.5,5.3,4.4,9c0.6,2.5,1,5.4,1.2,8.6c3-7.2,7.2-14.3,12.7-19.9c5.7-5.8,12.8-10,21.4-11.3
			c2.6-0.4,5.5-0.5,8.2,0.1c0.5,0.1,1.1,0.3,1.6,0.4c0.7-1,1.9-1.6,3.1-1.8l20-3c2.5-0.4,4.8,1.4,5.2,3.9c0.1,0.6,0,1.3-0.1,1.9
			l-10,48.7c0,0.1-0.1,0.2-0.1,0.3c-0.6,2-0.7,3.5-0.5,4.4c1.2-0.4,2.9-1.7,4.8-4c4.3-5.2,10.4-6.9,16-5.9c2.6,0.4,5.1,1.4,7.2,2.9
			c2.2,1.5,4,3.5,5.3,5.8C300.6,76.6,301,82.8,297.1,89.4"/>
		<polygon class="st2" points="109.5,125.6 112.6,135.4 122.9,135.4 114.6,141.4 117.8,151.2 109.5,145.2 101.2,151.2 104.3,141.4 
			96,135.4 106.3,135.4 		"/>
	</g>
</g>
</svg>
