<?xml version="1.0" encoding="utf-8"?>
<!-- Generator: Adobe Illustrator 24.0.0, SVG Export Plug-In . SVG Version: 6.00 Build 0)  -->
<svg version="1.1" id="Capa_1" xmlns="http://www.w3.org/2000/svg" xmlns:xlink="http://www.w3.org/1999/xlink" x="0px" y="0px"
	 viewBox="0 0 134 135.4" style="enable-background:new 0 0 134 135.4;" xml:space="preserve">
<style type="text/css">
	.st0{fill:#001489;}
</style>
<g>
	<path class="st0" d="M115.4,135.4c-8.4-2.3-14.6-6.9-18.6-13.8c-2.5-4-3.8-6.6-3.8-7.8l-0.2-0.2c-0.5-1.5-1.5-4.3-3-8.6
		c-1.5-4.3-3.3-9.8-5.6-16.6H43.6L37,104.6c1.7,0.3,3.5,0.5,5.2,0.8c1.7,0.3,3.5,0.5,5.4,0.8c1.7,0.5,3.5,1.2,5.2,1.9
		c1.7,0.7,3.5,1.7,5.2,2.9l3.2-4l5,4.2l-21,23.4c-4.9-4.7-11-7.5-18.2-8.6c-2.8-0.4-4.5-0.6-5-0.6c-6.5,0-12.3,1.3-17.2,4
		c-0.5,0.1-1.2,0.5-2,1c-0.1,0.7-1,1.3-2.6,2v-1.6L0,130.6V130c0-8.4,7.1-15.7,21.2-22c0.4-0.1,1.2-0.4,2.5-0.8
		c1.3-0.4,2.8-0.9,4.7-1.6l21.4-51.2c-3.3-3.7-6.5-5.6-9.6-5.6c-4.7,0-8.4,2.7-11.2,8c-2.3-2.3-3.4-5.1-3.4-8.4c0-1.6,0.5-3.3,1.6-5
		H27c4.9-9.9,12.1-14.8,21.6-14.8c4.1,0,7,0.8,8.6,2.4l1.4,0.8l-0.2-0.2l0.8,0.4l0.2-0.2v-0.2l0.4-0.8l0.2-0.4
		c0-0.1,0.1-0.3,0.2-0.6v-0.4l0.2-0.4c0-3.7-3.1-6.5-9.2-8.4h-0.4c-0.3,0-0.7-0.1-1.2-0.2c-0.3-0.1-0.6-0.2-1-0.2
		c-0.3,0-0.6-0.1-1-0.2h-0.2c-3.2,0-5.3,0.3-6.2,0.8c-2.5,0-6.5,2.1-11.8,6.2v-2.6c0-2.8,1.3-6.1,4-10C39.1,4.8,48.2,0,60.6,0h1
		c0.7,0.1,1.4,0.2,2.3,0.3c0.9,0.1,1.8,0.2,2.7,0.3c0.3,0.1,0.7,0.3,1.3,0.5c0.6,0.2,1.4,0.5,2.3,0.9H70c4.5,2,7.6,4.9,9.2,8.8
		l32.8,87c1.5,4,2.4,6.2,2.8,6.6c2.1,3.1,4.8,4.6,8,4.6c0.7,0,4.4-0.9,11.2-2.8L115.4,135.4z M52.2,67.4h24L65,36.4L52.2,67.4z
		 M57,30.8c0.1,0,0.2,0.1,0.2,0.2L57,30.8z"/>
</g>
</svg>
