<?xml version="1.0" encoding="utf-8"?>
<!-- Generator: Adobe Illustrator 24.0.0, SVG Export Plug-In . SVG Version: 6.00 Build 0)  -->
<svg version="1.1" id="Capa_1" xmlns="http://www.w3.org/2000/svg" xmlns:xlink="http://www.w3.org/1999/xlink" x="0px" y="0px"
	 viewBox="0 0 300 300" style="enable-background:new 0 0 300 300;" xml:space="preserve">
<style type="text/css">
	.st0{fill:#E4002B;}
	.st1{fill:#FFFFFF;}
</style>
<rect class="st0" width="300" height="300"/>
<path class="st1" d="M237.8,160.3v-0.7c14.8-9.2,14.8-27.4,14.8-27.4c-3.1,4.3-8.6,6.7-14.8,7.7v-0.3V62.8l25.1-26.6l-20.7-23.7
	l-25.1,23.7l-25.1-23.7l-20.7,23.7l25.1,26.6v73.9c-33.7-23.4-64-5.8-71-1V62.8l25.1-26.6l-20.7-23.7l-25.1,23.7L79.6,12.5
	c0,0-35.5,37-39.9,47.3c0,0-8.7,21.6,6.2,49.2l0,0l0,0c0.1,0.3,0.3,0.6,0.6,1c0.7,1.3,1.8,4.1,2.2,8.4c0.1,3.4,0.3,6.5,0.1,9.3
	c1.3-1.2,28.7-27.5,7.7-68.2l0,0c-1.2-1.6-0.3-5-0.3-5.2c1.2-3.5,3.8-8.9,9.6-11.1L84,62.8v76.9v20.7v76.9l-25.1,26.6l20.7,23.7
	l25.1-23.7l25.1,23.7l20.7-23.7l-25.1-26.6v-76.9c0,0,22.6-13.8,51.2-5.2c11.5,4.4,19.8,9.6,19.8,9.6v72.4l-25.1,26.6l20.7,23.7
	l25.1-23.7l25.1,23.7l20.7-23.7l-25.1-26.6V160.3z"/>
</svg>
