<?xml version="1.0" encoding="utf-8"?>
<!-- Generator: Adobe Illustrator 24.0.0, SVG Export Plug-In . SVG Version: 6.00 Build 0)  -->
<svg version="1.1" id="Capa_1" xmlns="http://www.w3.org/2000/svg" xmlns:xlink="http://www.w3.org/1999/xlink" x="0px" y="0px"
	 viewBox="0 0 300 300" style="enable-background:new 0 0 300 300;" xml:space="preserve">
<style type="text/css">
	.st0{fill:#001489;}
	.st1{fill:#FFFFFF;}
</style>
<rect class="st0" width="300" height="300"/>
<g>
	<path class="st1" d="M248.3,287.5c-17.1-4.6-29.7-14-37.8-28c-5.1-8.1-7.7-13.4-7.7-15.8l-0.4-0.4c-1.1-3-3.1-8.8-6.1-17.5
		c-3-8.7-6.8-19.9-11.4-33.7h-82.5l-13.4,32.9c3.5,0.5,7,1.1,10.6,1.6c3.5,0.5,7.2,1.1,11,1.6c3.5,1.1,7,2.4,10.6,3.9
		c3.5,1.5,7,3.5,10.6,5.9l6.5-8.1l10.2,8.5l-42.7,47.5c-10-9.5-22.3-15.3-37-17.5c-5.7-0.8-9.1-1.2-10.2-1.2
		c-13.3,0-24.9,2.7-34.9,8.1c-1.1,0.3-2.4,0.9-4.1,2c-0.3,1.4-2,2.7-5.3,4.1v-3.2l-0.4-0.4v-1.2c0-17.1,14.4-31.9,43.1-44.7
		c0.8-0.3,2.5-0.8,5.1-1.6c2.6-0.8,5.7-1.9,9.5-3.2l43.5-104c-6.8-7.6-13.3-11.4-19.5-11.4c-9.5,0-17.1,5.4-22.7,16.2
		c-4.6-4.6-6.9-10.3-6.9-17.1c0-3.2,1.1-6.6,3.2-10.2h-0.4c10-20,24.6-30.1,43.9-30.1c8.4,0,14.2,1.6,17.5,4.9l2.8,1.6l-0.4-0.4
		l1.6,0.8l0.4-0.4v-0.4l0.8-1.6l0.4-0.8c0-0.3,0.1-0.7,0.4-1.2v-0.8l0.4-0.8c0-7.6-6.2-13.3-18.7-17.1h-0.8c-0.5,0-1.4-0.1-2.4-0.4
		c-0.5-0.3-1.2-0.4-2-0.4c-0.5,0-1.2-0.1-2-0.4h-0.4c-6.5,0-10.7,0.5-12.6,1.6c-5.1,0-13.1,4.2-24,12.6v-5.3
		c0-5.7,2.7-12.5,8.1-20.3c11.6-19.5,30.1-29.2,55.2-29.2h2c1.4,0.3,2.9,0.5,4.7,0.6c1.8,0.1,3.6,0.3,5.5,0.6c0.5,0.3,1.4,0.6,2.6,1
		c1.2,0.4,2.8,1,4.7,1.8h-0.4c9.2,4.1,15.4,10,18.7,17.9l66.6,176.7c3,8.1,4.9,12.6,5.7,13.4c4.3,6.2,9.7,9.3,16.2,9.3
		c1.4,0,8.9-1.9,22.7-5.7L248.3,287.5z M119.9,149.4h48.7l-22.7-63L119.9,149.4z M129.7,75.1c0.3,0,0.4,0.1,0.4,0.4L129.7,75.1z"/>
</g>
</svg>
