<?xml version="1.0" encoding="utf-8"?>
<!-- Generator: Adobe Illustrator 24.0.0, SVG Export Plug-In . SVG Version: 6.00 Build 0)  -->
<svg version="1.1" id="Capa_4" xmlns="http://www.w3.org/2000/svg" xmlns:xlink="http://www.w3.org/1999/xlink" x="0px" y="0px"
	 viewBox="0 0 152.7 186" style="enable-background:new 0 0 152.7 186;" xml:space="preserve">
<style type="text/css">
	.st0{fill:#E4002B;}
</style>
<path class="st0" d="M135.7,100v-0.5c10-6.2,10-18.5,10-18.5c-2.1,2.9-5.8,4.5-10,5.2V86V34l17-18l-14-16l-17,16l-17-16l-14,16
	l17,18v50c-22.8-15.8-43.3-3.9-48-0.7V34l17-18l-14-16l-17,16l-17-16c0,0-24,25-27,32c0,0-5.9,14.6,4.2,33.3l0,0c0,0,0,0,0,0
	C6,65.5,6.1,65.7,6.3,66c0.5,0.9,1.2,2.8,1.5,5.7c0.1,2.3,0.2,4.4,0.1,6.3c0.9-0.8,19.4-18.6,5.2-46.1l0,0c-0.8-1.1-0.2-3.4-0.2-3.5
	c0.8-2.4,2.6-6,6.5-7.5L31.7,34v52v14v52l-17,18l14,16l17-16l17,16l14-16l-17-18v-52c0,0,15.3-9.3,34.6-3.5c7.8,3,13.4,6.5,13.4,6.5
	v49l-17,18l14,16l17-16l17,16l14-16l-17-18V100z"/>
</svg>
